# xmcd
#
# Track frame offsets: 
#        150
#        11852
#        19643
#        31389
#        41182
#        53323
#        64711
#        75802
#        87616
#        101010
#        114010
#        126353
#        137584
#        149071
#        161376
#        174555
#        184984
#        194393
#        209462
#        223356
#        234893
#
# Disc length: 3270 seconds
#
# Revision: 0
# Processed by: cddbd v1.4PL0 Copyright (c) Steve Scherf et al.
# Submitted via: ExactAudioCopy v0.90b3
#
DISCID=250cc415
DTITLE=Glen Campbell - The Legacy (1961-2002) - Disc 1 of 4
DYEAR=2003
DGENRE=Country
TTITLE0=Turn Around, Look At Me
TTITLE1=Kentucky Means Paradise - The Green River Boys featuring Glen 
TTITLE1=Campbell
TTITLE2=Too Late To Worry, Too Blue To Cry
TTITLE3=Universal Soldier
TTITLE4=Guess I'm Dumb
TTITLE5=Burning Bridges
TTITLE6=Just To Satisfy You
TTITLE7=Less Of Me
TTITLE8=Gentle On My Mind
TTITLE9=Crying
TTITLE10=By The Time I Get To Phoenix
TTITLE11=Tomorrow Never Comes
TTITLE12=Hey Little One
TTITLE13=I Wanna Live
TTITLE14=Turn Around, Look At Me (New Version)
TTITLE15=Legend Of Bonnie and Clyde
TTITLE16=Let It Be Me - Glen Campbell and Bobbie Gentry
TTITLE17=Scarborough Fair - Canticle - Glen Campbell and Bobbie Gentry
TTITLE18=Wichita Lineman
TTITLE19=Dreams Of The Everyday Housewife
TTITLE20=Reason To Believe
EXTD=2003 Capitol Nashville
EXTT0=
EXTT1=
EXTT2=
EXTT3=
EXTT4=
EXTT5=
EXTT6=
EXTT7=
EXTT8=
EXTT9=
EXTT10=
EXTT11=
EXTT12=
EXTT13=
EXTT14=
EXTT15=
EXTT16=
EXTT17=
EXTT18=
EXTT19=
EXTT20=
PLAYORDER=
